<svg xmlns="http://www.w3.org/2000/svg" xmlns:xlink="http://www.w3.org/1999/xlink" viewBox="0 0 67.328 10.583" height="39.999" width="254.468"><path d="M4.138.02L3.714 0C1.947 0 0 1.344 0 2.752 0 3.514.402 3.78 1.132 3.78c-.01-.095-.148-.18-.148-.72 0-1.164.593-2 1.746-2.35v7.228h1.524L6.392 2.55v5.387h1.524L10.858.053h-.74L7.8 6.53V.053H6.455L4.233 6.53zm9.426 2.626l-.064.275a1.15 1.15 0 0 0-.709-.265c-2.117 0-2.773 2.18-2.773 4 0 .624.296 1.344 1.312 1.344.646 0 1.122-.434 1.44-.868.138.55.603.804 1.3.804.825 0 2.02-1.408 2.508-1.894h-.36c-.423.34-.974.93-1.397.93s-.53-.17-.53-.402a1.9 1.9 0 0 1 .042-.328l.762-3.598zm-.688.603a.79.79 0 0 1 .519.19l-.593 2.805a2.46 2.46 0 0 0-.063.349c-.2.296-.434.53-.677.53-.265 0-.614-.116-.614-.75 0-1.44.635-3.122 1.43-3.122z"/><path d="M16.717.74l-1.175 5.503a2.65 2.65 0 0 0-.063.54c0 .794.497 1.154 1.312 1.154.825 0 2.02-1.408 2.508-1.894h-.36c-.423.34-.974.93-1.397.93-.413 0-.53-.16-.53-.392 0-.085.02-.18.053-.34L18.283.53z"/><path d="M19.735.74L18.56 6.244a2.65 2.65 0 0 0-.063.54c0 .794.497 1.154 1.312 1.154.825 0 2.02-1.408 2.508-1.894h-.36c-.423.34-.974.93-1.397.93-.413 0-.53-.16-.53-.392 0-.085.02-.18.053-.34L21.3.53z"/><use xlink:href="#B"/><path d="M29.79 2.646l-.063.275a1.15 1.15 0 0 0-.709-.265c-2.117 0-2.773 2.18-2.773 4 0 .624.296 1.344 1.312 1.344.646 0 1.122-.434 1.44-.868.138.55.603.804 1.29.804.825 0 2.02-1.408 2.508-1.894h-.36c-.423.34-.974.93-1.397.93s-.53-.17-.53-.402c0-.095.02-.212.042-.328l.762-3.598zm-.688.603a.79.79 0 0 1 .519.19l-.593 2.805a2.46 2.46 0 0 0-.063.349c-.2.296-.434.53-.677.53-.265 0-.614-.116-.614-.75 0-1.44.635-3.122 1.43-3.122z"/><use xlink:href="#B" x="10.19"/><path d="M37.968 6.266A3.8 3.8 0 0 1 38 5.81c1.005-.127 2.392-.868 2.392-2.16 0-.74-.487-1.1-1.355-1.1-1.926 0-2.498 2.36-2.498 3.704 0 .9.55 1.683 1.566 1.683 1.365 0 2.38-1.07 2.984-2.16h-.476c-.37.783-1.26 1.397-1.778 1.397-.413 0-.868-.212-.868-.9zm1.79-2.56a1.71 1.71 0 0 1-1.672 1.598c.222-.995.71-2.19 1.302-2.19.317 0 .37.37.37.593z"/><use xlink:href="#C"/><path d="M45.715.74L44.54 6.244c-.042.2-.063.37-.063.52 0 .9.698 1.206 1.746 1.206 1.894 0 2.805-2.34 2.805-4 0-.624-.328-1.344-1.344-1.344-.35 0-.667.127-.9.307L47.28.53zm2.127 3.302c0 .762-.53 3.175-1.397 3.175-.317 0-.466-.074-.466-.392 0-.138.032-.328.085-.582l.603-2.836c.095-.074.466-.148.57-.148.265 0 .603.148.603.783z"/><use xlink:href="#D"/><use xlink:href="#E"/><use xlink:href="#E" x="3.101"/><use xlink:href="#D" x="9.92"/><use xlink:href="#C" x="22.614"/><defs ><path id="B" d="M22.245 2.646l-1.683 7.937 1.598-.38.55-2.593c.317.2.646.317.995.317 1.08 0 2-.773 2.318-3.048.042-.275.063-.52.063-.74 0-1.1-.52-1.482-1.62-1.482-.265 0-.52.074-.74.2l.042-.2zm1.29 4.498c-.17 0-.434 0-.688-.2l.762-3.556c.2-.138.402-.222.603-.222.34 0 .593.127.593.762 0 .254-.042.603-.138 1.07-.35 1.683-.603 2.138-1.132 2.138z"/><path id="C" d="M41.296 2.646l-1.122 5.292h1.524l.878-4.15c.243-.222.413-.34.73-.34s.02.698.614.698c.52 0 .794-.455.794-.825 0-.402-.286-.677-.762-.677-.444 0-.868.233-1.25.53l.116-.53z"/><path id="D" d="M50.66 6.266a3.8 3.8 0 0 1 .032-.455c1.005-.127 2.392-.868 2.392-2.16 0-.74-.487-1.1-1.355-1.1-1.926 0-2.498 2.36-2.498 3.704 0 .9.55 1.683 1.566 1.683 1.365 0 2.38-1.07 2.984-2.16h-.476c-.37.783-1.26 1.397-1.778 1.397-.413 0-.868-.212-.868-.9zm1.79-2.56a1.71 1.71 0 0 1-1.672 1.598c.222-.995.71-2.19 1.302-2.19.317 0 .37.37.37.593z"/><path id="E" d="M54.326 1.186l-.317 1.46h-.35l-.085.423h.35l-.73 3.715c0 .794.497 1.154 1.312 1.154.825 0 2.02-1.408 2.508-1.894h-.36c-.423.34-.974.93-1.397.93s-.53-.16-.53-.402c0-.053-.01-.16.72-3.503h.635l.085-.423h-.635l.36-1.672z"/></defs></svg>